<?xml version="1.0" encoding="UTF-8" standalone="no"?>
<svg
   xmlns:dc="http://purl.org/dc/elements/1.1/"
   xmlns:cc="http://creativecommons.org/ns#"
   xmlns:rdf="http://www.w3.org/1999/02/22-rdf-syntax-ns#"
   xmlns:svg="http://www.w3.org/2000/svg"
   xmlns="http://www.w3.org/2000/svg"
   viewBox="0 0 437.33334 78.666664"
   height="78.666664"
   width="437.33334"
   xml:space="preserve"
   id="svg2"
   version="1.1"><metadata
     id="metadata8"><rdf:RDF><cc:Work
         rdf:about=""><dc:format>image/svg+xml</dc:format><dc:type
           rdf:resource="http://purl.org/dc/dcmitype/StillImage" /></cc:Work></rdf:RDF></metadata><defs
     id="defs6" /><g
     transform="matrix(1.3333333,0,0,-1.3333333,0,78.666667)"
     id="g10"><g
       transform="scale(0.1)"
       id="g12"><path
         id="path14"
         style="fill:#ffffff;fill-opacity:1;fill-rule:evenodd;stroke:none"
         d="m 746.168,55.5156 c 0,-3.5898 1.082,-4.6718 4.676,-4.6718 h 74.793 c 3.593,0 4.676,1.082 4.676,4.6718 V 262.777 H 1068.72 V 55.5156 c 0,-3.5898 1.08,-4.6718 4.68,-4.6718 h 74.79 c 3.6,0 4.68,1.082 4.68,4.6718 V 496.531 c 0,3.59 -1.08,4.676 -4.68,4.676 h -74.79 c -3.6,0 -4.68,-1.086 -4.68,-4.676 V 303.297 H 830.313 v 193.234 c 0,3.59 -1.083,4.676 -4.676,4.676 H 746.168 V 55.5156" /><path
         id="path16"
         style="fill:#bb8931;fill-opacity:1;fill-rule:evenodd;stroke:none"
         d="m 2496.06,297.059 c -22.44,0 -38.95,-3.454 -38.95,4.675 v 151.164 c 0,8.129 16.51,4.672 38.95,4.672 30.05,0 58.56,-4.304 78.97,-14.527 39.45,-19.758 44.4,-64.762 25.95,-98.188 -16.44,-29.773 -68.87,-47.796 -104.92,-47.796 z M 2376.08,496.531 V 52.3984 h 77.91 c 6.2,0 3.1,4.7422 3.12,24.9375 l -0.18,173.1521 c 0.09,13.332 1.67,9.172 39.13,9.172 47.54,0 78.82,-0.394 113.95,12.27 17.56,6.328 27.4,12.758 41.59,22.293 43.24,29.062 51,97.797 33.48,138.89 -11.86,27.836 -40.13,49.555 -69.65,58.125 -52.92,15.36 -164.6,5.528 -228.59,8.45 -7.45,0.339 -10.76,2.812 -10.76,-3.157" /><path
         id="path18"
         style="fill:#bb8931;fill-opacity:1;fill-rule:evenodd;stroke:none"
         d="m 492.18,527.699 c 0,-8.254 10.297,-6.316 18.683,-6.25 8.836,0.074 17.684,-0.019 26.524,0.035 93.277,0.59 105.937,-135.925 17.504,-156.242 -24.645,-5.664 -348.871,-2.73 -400.852,-2.73 -17.625,0 -119.2499,2.996 -130.871,-3.137 -26.44144,-13.969 -19.39456,-48.957 2.9023,-56.27 12.8203,-4.21 11.1055,6.618 11.1055,-30.976 l 51.418,0.004 v 28.047 h 17.1442 v -40.52 h 51.418 v 40.52 h 364.625 c 33.914,0 61.09,5.195 87.215,20.304 34.453,19.942 66.442,63.786 68.629,110.594 0.523,11.141 1.281,19.18 -0.625,32.125 -1.656,11.274 -3.93,19.344 -7.383,28.453 -18.679,49.231 -68.125,92.145 -124.461,92.145 H 492.18 v -56.102" /><path
         id="path20"
         style="fill:#ffffff;fill-opacity:1;fill-rule:evenodd;stroke:none"
         d="m 1369.46,346.93 c 31.21,0 61.44,-18.684 75.47,-36.719 22.71,-29.18 30.49,-52.789 30.49,-92.625 0,-72.668 -58.45,-135.4415 -129.91,-115.898 -99.44,27.191 -108.64,211.003 5.53,241.843 3.5,0.946 15.2,3.399 18.42,3.399 z M 1191.82,223.82 c 0,-29.078 6.11,-51.355 16.1,-71.168 31.67,-62.7965 88.23,-101.8082 167.77,-101.8082 50.48,0 106.58,27.7343 134.24,62.0972 21.14,26.25 37.7,55.137 40.2,90.707 4.34,61.95 -12.57,98.692 -53.28,139.778 -64.15,64.742 -181.14,64.39 -246.21,3.894 -3.92,-3.636 -5.83,-3.906 -9.36,-7.773 -8.69,-9.504 -22,-26.254 -28.16,-37.301 -12.23,-21.949 -21.3,-50.629 -21.3,-78.426" /><path
         id="path22"
         style="fill:#ffffff;fill-opacity:1;fill-rule:evenodd;stroke:none"
         d="m 1902.38,265.895 c 1.48,3.089 2.56,13.093 3.7,18.105 22.09,96.719 161.47,89.082 161.47,-5.637 v -10.91 c -28.83,0 -52.2,-1.558 -81.03,-1.558 -28.05,0 -56.09,0 -84.14,0 z m -84.15,-37.403 c 0,-61.441 9.79,-117.656 60.74,-154.3045 10.98,-7.8984 30.46,-17.6797 43.45,-21.9961 50.74,-16.8555 118.59,-15.4648 171,-2.293 7.29,1.8321 20.2,4.6094 25.55,7.1797 2.39,4.9688 6.23,33.5821 6.23,42.0742 -13.3,0 -31.38,-7.6757 -45.84,-10.2578 -53.93,-9.6132 -113.82,-8.2656 -150.13,30.8825 -25.21,27.196 -31.53,67.422 -31.53,113.391 h 249.32 c 0,38.035 -3.5,68.02 -21.13,97.309 -3.12,5.187 -4.75,7.617 -8.26,11.996 -3.09,3.851 -5.71,7.543 -9.15,11.109 -49.91,51.828 -120.28,56.781 -185.65,32.106 -36.12,-13.633 -77.7,-47.223 -90.79,-83.735 -7.52,-20.941 -13.81,-44.789 -13.81,-73.461" /><path
         id="path24"
         style="fill:#bc8a31;fill-opacity:1;fill-rule:evenodd;stroke:none"
         d="m 2993.14,211.352 c 0,40.168 4.14,68.66 30.06,99.285 35.91,42.429 90.71,49.343 135.6,11.843 73.89,-61.726 51.11,-214.445 -56.37,-225.23 -26.95,-2.707 -61.12,12.879 -76.58,33.063 -18.58,24.269 -32.71,46.871 -32.71,81.039 z m -74.8,14.027 c 0,-52.344 17.94,-88.734 51.81,-122.723 24.12,-24.1951 68.96,-50.2576 116.48,-50.2576 46.85,0 77.06,5.5625 115.02,31.461 3.97,2.707 7.98,5.5625 11.55,8.707 36.63,32.2226 63.53,74.9966 63.53,128.1366 0,66.231 -43.66,129.891 -103.73,154.949 -59.34,24.746 -122.58,22.578 -176.44,-13.445 -4.72,-3.156 -8.64,-5.836 -12.81,-9.012 -4.57,-3.488 -6.66,-6.093 -11.77,-10.039 -13.23,-10.222 -28.98,-34.14 -36.5,-49.211 -9.08,-18.207 -17.14,-41.625 -17.14,-68.566" /><path
         id="path26"
         style="fill:#ffffff;fill-opacity:1;fill-rule:evenodd;stroke:none"
         d="m 1604.75,385.887 h -37.39 c -7.81,0 -4.68,-13.293 -4.68,-34.282 0,-3.593 1.09,-4.675 4.68,-4.675 h 37.39 V 96.0313 c 0,-18.2227 16.13,-31.9258 27.93,-39.0782 14.85,-8.9961 32.07,-12.9765 53.33,-15.2383 23.69,-2.5195 66.59,0.254 86.45,11.2618 13.63,7.5507 11.49,20.7226 11.49,36.8242 0,9.2265 -14.9,6.2305 -31.16,6.2305 -8.15,0 -1.33,-7.6407 -21.23,-13.0547 -35.42,-9.6368 -48.9,13.4297 -48.9,50.4574 v 208.82 c 0,7.215 12.44,4.703 20.26,4.68 l 52.98,-0.004 c 25.84,-0.043 21.82,-6.649 21.82,34.281 0,6.789 -8.36,4.805 -15.56,4.703 l -62.37,-0.039 c -20.94,-0.199 -17.42,-5.766 -17.15,45.254 v 15.535 h -77.89 v -60.777" /><path
         id="path28"
         style="fill:#ffffff;fill-opacity:1;fill-rule:evenodd;stroke:none"
         d="m 2182.86,55.5156 c 0,-3.5898 1.08,-4.6718 4.67,-4.6718 h 63.89 c 3.59,0 4.67,1.082 4.67,4.6718 V 501.207 h -73.23 V 55.5156" /><path
         id="path30"
         style="fill:#bc8a31;fill-opacity:1;fill-rule:evenodd;stroke:none"
         d="m 2803.03,367.188 v 18.699 h -71.67 c -3.6,0 -4.68,-1.082 -4.68,-4.676 V 52.3984 h 76.35 c 0,41.2891 -2.21,179.4416 1.97,211.5316 2.88,22.09 14.2,44.023 29.55,59.265 18.15,18.016 42.42,19.922 66.4,22.426 7.02,0.731 20.86,2.867 28.3,2.867 v 38.957 c 0,3.594 -1.09,4.676 -4.68,4.676 -36.32,0 -71.97,2.637 -103.89,-14.527 -6.09,-3.274 -11.58,-8.785 -17.65,-10.406" /><path
         id="path32"
         style="fill:#ffffff;fill-opacity:1;fill-rule:evenodd;stroke:none"
         d="M 395.566,267.453 V 50.8438 c 0,-8.9141 6.836,-10.8165 13.09,-14.961 10.16,-6.7344 45.024,-34.16796 53.914,-34.910144 0,82.414044 -1.297,175.105344 0.055,257.183344 0.309,18.633 6.664,13.973 -62.383,13.973 -3.59,0 -4.676,-1.086 -4.676,-4.676" /><path
         id="path34"
         style="fill:#ffffff;fill-opacity:1;fill-rule:evenodd;stroke:none"
         d="M 395.566,580.684 V 396.793 c 0,-3.586 1.086,-4.672 4.676,-4.672 h 57.653 c 3.593,0 4.675,1.086 4.675,4.672 v 183.891 c 0,3.589 -1.082,4.675 -4.675,4.675 h -57.653 c -3.59,0 -4.676,-1.086 -4.676,-4.675" /><path
         id="path36"
         style="fill:#ffffff;fill-opacity:1;fill-rule:evenodd;stroke:none"
         d="m 230.395,159.926 c 6.23,-1.664 49.589,-34.074 58.335,-40.102 3.219,-2.219 7.11,-5.804 7.11,1.145 v 146.484 c 0,3.59 -1.082,4.676 -4.676,4.676 H 230.395 V 159.926" /><path
         id="path38"
         style="fill:#ffffff;fill-opacity:1;fill-rule:evenodd;stroke:none"
         d="m 230.395,392.121 h 60.769 c 3.594,0 4.676,1.086 4.676,4.672 v 121.555 c 0,3.59 -1.082,4.672 -4.676,4.672 H 230.395 V 392.121" /></g></g></svg>